<svg xmlns:xlink="http://www.w3.org/1999/xlink" preserveAspectRatio="xMidYMid meet" data-bbox="31.078 22 137.843 155.564" viewBox="31.078 22 137.843 155.564" height="200" width="200" xmlns="http://www.w3.org/2000/svg" data-type="color" role="presentation" aria-hidden="true" aria-labelledby="svgcid--gvkhcm4fu4zm"><defs><style>#comp-km3aqc4u svg [data-color="1"] {fill: #000000;}
#comp-km3aqc4u svg [data-color="2"] {fill: #751FFF;}</style></defs><title id="svgcid--gvkhcm4fu4zm"></title>
    <g>
        <path d="M165.922 22h-91.44a3 3 0 0 0-3 3v23.227H43.554c-6.879 0-12.476 5.596-12.476 12.475v113.862a3 3 0 0 0 3 3h91.439a3 3 0 0 0 3-3v-23.227h22.981c.515 0 1.021-.033 1.525-.077.586.072.949.077.97.077.63 0 1.211-.197 1.691-.53 7.588-1.882 13.237-8.732 13.237-16.893V25a2.999 2.999 0 0 0-2.999-3zm-43.404 149.564h-85.44V60.702a6.482 6.482 0 0 1 6.476-6.475h80.761c-1.081 1.815-1.797 4.091-1.797 6.924v110.413zm5.999-91.275V61.15c0-5.235 4.024-6.637 5.111-6.92 6.865.175 7.302 6.121 7.32 7.307v74.748c0 3.978.928 6.897 2.283 9.051h-14.714V80.289zm34.405 53.624c0 5.793-4.337 10.58-9.932 11.315-2.077-.37-6.042-1.986-6.042-8.942V61.538c0-.338-.047-3.396-1.662-6.53-2.255-4.373-6.506-6.781-11.97-6.781H77.481V28h85.44v105.913z" fill="#000000" data-color="1"></path>
        <path d="M61.465 131.135c-.532 0-1.07-.141-1.557-.439a2.998 2.998 0 0 1-1.003-4.121l33.218-54.572a2.998 2.998 0 1 1 5.124 3.118L64.03 129.694a2.997 2.997 0 0 1-2.565 1.441z" fill="#751FFF" data-color="2"></path>
        <path d="M63.84 98.509c-8.196 0-14.864-6.668-14.864-14.864 0-8.195 6.668-14.863 14.864-14.863s14.864 6.668 14.864 14.863c0 8.197-6.668 14.864-14.864 14.864zm0-23.726c-4.887 0-8.864 3.976-8.864 8.863s3.977 8.864 8.864 8.864 8.864-3.977 8.864-8.864-3.977-8.863-8.864-8.863z" fill="#751FFF" data-color="2"></path>
        <path d="M96.465 129.355c-8.196 0-14.864-6.668-14.864-14.864s6.668-14.864 14.864-14.864 14.864 6.668 14.864 14.864-6.668 14.864-14.864 14.864zm0-23.728c-4.887 0-8.864 3.977-8.864 8.864s3.977 8.864 8.864 8.864 8.864-3.977 8.864-8.864-3.977-8.864-8.864-8.864z" fill="#751FFF" data-color="2"></path>
    </g>
</svg>