<svg xmlns:xlink="http://www.w3.org/1999/xlink" preserveAspectRatio="xMidYMid meet" data-bbox="18.037 24.249 169.427 148.092" viewBox="18.037 24.249 169.427 148.092" height="200" width="200" xmlns="http://www.w3.org/2000/svg" data-type="color" role="presentation" aria-hidden="true" aria-labelledby="svgcid-4cbcq8-l72p0y"><defs><style>#comp-km3aq0qx svg [data-color="1"] {fill: #000000;}
#comp-km3aq0qx svg [data-color="2"] {fill: #751FFF;}</style></defs><title id="svgcid-4cbcq8-l72p0y"></title>
    <g>
        <path d="M169.8 117c-2.1-.7-4.4.4-5.1 2.5-7.8 23-27.6 39.8-51.5 43.8-34 5.7-66.4-15.7-74.9-48.5l6.4 4.5c.9.6 2 .9 3 .7 1-.2 2-.7 2.6-1.6 1.3-1.8.9-4.3-.9-5.6l-14.6-10.4c-1.8-1.3-4.3-.9-5.6.9L18.8 118c-1.3 1.8-.9 4.3.9 5.6 1.8 1.3 4.3.9 5.6-.9l4.9-6.9c9 37.4 45.7 62 84.2 55.5 26.8-4.5 49-23.4 57.8-49.2.8-2.1-.3-4.4-2.4-5.1z" fill="#000000" data-color="1"></path>
        <path d="M185.8 77c-1.8-1.3-4.3-.9-5.6.9l-5.2 7.3c-7.1-39.8-45.2-66.7-85.2-59.9-23.8 4-44.2 19.4-54.5 41.2-.9 2-.1 4.4 1.9 5.3 2 .9 4.4.1 5.3-1.9C51.8 50.6 70 36.8 91.2 33.2c35.3-6 68.8 17.4 75.7 52.3l-6.1-4.3c-1.8-1.3-4.3-.9-5.6.9-1.3 1.8-.9 4.3.9 5.6l14.6 10.4c.9.6 2 .9 3 .7 1-.2 2-.7 2.6-1.6l10.4-14.6c1.3-1.8.9-4.3-.9-5.6z" fill="#000000" data-color="1"></path>
        <path d="M98 124c-.5 0-1.1-.1-1.6-.3-1.5-.6-2.4-2.1-2.4-3.7V51.9c0-2.2 1.8-4 4-4s4 1.8 4 4v58.8l25.8-24.6c1.6-1.5 4.1-1.5 5.7.1 1.5 1.6 1.5 4.1-.1 5.7l-32.5 31c-.9.8-1.9 1.1-2.9 1.1z" fill="#751FFF" data-color="2"></path>
    </g>
</svg>