<svg xmlns:xlink="http://www.w3.org/1999/xlink" preserveAspectRatio="xMidYMid meet" data-bbox="21 41.657 157.001 114.861" viewBox="21 41.657 157.001 114.861" height="200" width="200" xmlns="http://www.w3.org/2000/svg" data-type="color" role="presentation" aria-hidden="true" aria-labelledby="svgcid--nkt8wyi0iign"><defs><style>#comp-km3aq0p4 svg [data-color="1"] {fill: #000000;}
#comp-km3aq0p4 svg [data-color="2"] {fill: #751FFF;}</style></defs><title id="svgcid--nkt8wyi0iign"></title>
    <g>
        <path d="M175.39 129.667h-5.351c-1.271-12.926-11.875-23.154-24.964-23.831-.036-.126-.071-.252-.127-.374-.641-1.403-15.725-34.436-19.432-41.851-2.948-5.895-5.401-7.887-9.157-7.58a2.608 2.608 0 0 0-1.009-.203H92.228a2.61 2.61 0 1 0 0 5.22h11.656c-1.502 1.22-2.601 2.649-3.253 4.288-1.381 3.47-.265 6.516-.008 7.133l14.542 37.811c.177.46.279.908.303 1.335.123 2.159-.355 3.783-1.46 4.965-2.063 2.206-5.72 2.271-5.744 2.271H83.779a4.11 4.11 0 0 1-3.303-1.648c-8.229-11.151.348-21.995 6.193-27.467a3.838 3.838 0 0 0 .95-4.235 3.85 3.85 0 0 0-3.6-2.45h-35.34a6.834 6.834 0 0 0-4.698 1.872c-3.312 3.113-4.564 6.159-3.722 9.054.791 2.72 3.247 4.442 5.566 5.495-13.32 13.706-15.749 31.661-15.853 32.476a2.608 2.608 0 0 0 2.59 2.94h7.869c-.018.123-.038.245-.038.373 0 11.721 9.536 21.257 21.257 21.257s21.257-9.536 21.257-21.257c0-.128-.02-.25-.038-.373h38.859c-.018.123-.038.245-.038.373 0 11.721 9.536 21.257 21.257 21.257s21.257-9.536 21.257-21.257c0-.128-.02-.25-.038-.373h11.225a2.61 2.61 0 0 0-.001-5.221zm-10.608 0h-42.181c1.292-10.493 10.254-18.646 21.09-18.646s19.799 8.153 21.091 18.646zM52.533 100.323a2.614 2.614 0 0 0-1.206-4.545c-2.215-.431-5.646-1.841-6.057-3.261-.233-.808.621-2.225 2.286-3.79.312-.293.71-.454 1.122-.454H80.76c-2.609 2.807-5.439 6.549-7.2 10.944-2.958 7.382-2.019 14.674 2.714 21.088 1.742 2.36 4.547 3.769 7.504 3.769h24.485c.239 0 5.889-.044 9.52-3.886 2.128-2.253 3.103-5.236 2.897-8.866a9.637 9.637 0 0 0-.643-2.915l-14.559-37.852c-.016-.041-.018-.047-.036-.088-.297-.728-1.473-4.489 4.57-7.007 7.934-3.306 7.936-3.307 10.832 2.487 3.223 6.445 15.613 33.505 18.668 40.186-11.778 1.875-20.991 11.542-22.17 23.534H35.717c1.355-5.957 5.554-19.692 16.816-29.344zm25.151 34.937c0 8.842-7.194 16.036-16.036 16.036s-16.036-7.193-16.036-16.036c0-.128-.02-.25-.038-.373H77.72c-.016.123-.036.246-.036.373zm81.297 0c0 8.842-7.194 16.036-16.036 16.036-8.842 0-16.036-7.193-16.036-16.036 0-.128-.02-.25-.038-.373h32.146c-.016.123-.036.246-.036.373z" fill="#000000" data-color="1"></path>
        <path d="M64.587 41.657H28.876c-4.343 0-7.876 3.533-7.876 7.877v21.539c0 4.343 3.533 7.877 7.876 7.877h35.711c4.343 0 7.876-3.533 7.876-7.877V49.534c0-4.344-3.533-7.877-7.876-7.877zm2.655 29.416a2.659 2.659 0 0 1-2.655 2.656H28.876a2.659 2.659 0 0 1-2.655-2.656V49.534a2.659 2.659 0 0 1 2.655-2.656h35.711a2.659 2.659 0 0 1 2.655 2.656v21.539z" fill="#751FFF" data-color="2"></path>
    </g>
</svg>