<svg xmlns:xlink="http://www.w3.org/1999/xlink" preserveAspectRatio="xMidYMid meet" data-bbox="22 29.01 158 141.964" viewBox="22 29.01 158 141.964" height="200" width="200" xmlns="http://www.w3.org/2000/svg" data-type="color" role="presentation" aria-hidden="true" aria-labelledby="svgcid--kaqxvgagj8yu"><defs><style>#comp-km3c06wy svg [data-color="1"] {fill: #000000;}
#comp-km3c06wy svg [data-color="2"] {fill: #751FFF;}</style></defs><title id="svgcid--kaqxvgagj8yu"></title>
    <g>
        <path d="M180 57.344c0-15.623-12.711-28.334-28.334-28.334-15.583 0-28.265 12.646-28.33 28.214L88.453 42.025a2.773 2.773 0 0 0-2.297.035L58.541 55.089a2.779 2.779 0 0 0-1.113.525L23.594 71.578c-.071.033-.13.08-.197.118-.039.022-.082.033-.12.057-.039.025-.073.055-.111.081a2.79 2.79 0 0 0-.441.386c-.02.022-.036.045-.055.067a2.736 2.736 0 0 0-.241.328c-.019.03-.039.059-.056.089a2.797 2.797 0 0 0-.197.418c-.011.029-.019.059-.029.089a2.816 2.816 0 0 0-.101.397c-.005.029-.013.058-.017.088a3.092 3.092 0 0 0-.029.397v65.903c0 1.088.635 2.076 1.624 2.529l61.681 28.197.015.005a2.692 2.692 0 0 0 .628.192c.161.03.324.051.488.052.008 0 .016.003.023.003.19 0 .378-.026.562-.065l.113-.024c.179-.045.354-.106.521-.186.011-.005.024-.007.035-.013l62.562-30.841a2.78 2.78 0 0 0 1.551-2.494V85.674C167.363 85.599 180 72.921 180 57.344zm-92.612-9.717l36.648 15.968a28.307 28.307 0 0 0 7.311 13.467l-13.602 6.705-52.128-25.868 21.771-10.272zm-.972 51.584L31.381 74.052l27.825-13.128 52.266 25.936-25.056 12.351zm-58.855-20.79l56.12 25.655v59.788l-56.12-25.654V78.421zm61.681 85.3v-59.703l26.088-12.86 2.287 25.914a2.78 2.78 0 1 0 5.538-.489l-2.476-28.062 15.349-7.566a28.177 28.177 0 0 0 10.215 4.196v50.472l-57.001 28.098zm62.424-83.604c-12.557 0-22.773-10.216-22.773-22.773s10.216-22.773 22.773-22.773 22.773 10.216 22.773 22.773c0 12.556-10.216 22.773-22.773 22.773z" fill="#000000" data-color="1"></path>
        <path d="M147.434 68.5h-.041a2.778 2.778 0 0 1-1.956-.846l-7.506-7.747a2.781 2.781 0 0 1 3.994-3.87l5.568 5.746 13.928-13.551a2.781 2.781 0 0 1 3.878 3.986l-15.925 15.494a2.781 2.781 0 0 1-1.94.788z" fill="#751FFF" data-color="2"></path>
    </g>
</svg>